<?xml version="1.0" encoding="UTF-8" standalone="no"?>
<svg
   width="512px"
   height="94px"
   viewBox="0 0 512 94"
   id="svg78">
  <defs
     id="defs82">
    <linearGradient
       inkscape:collect="always"
       id="linearGradient918">
      <stop
         style="stop-color:#ff7b00;stop-opacity:1"
         offset="0"
         id="stop914" />
      <stop
         style="stop-color:#ffea00;stop-opacity:1"
         offset="1"
         id="stop916" />
    </linearGradient>
    <linearGradient
       inkscape:collect="always"
       xlink:href="#linearGradient918"
       id="linearGradient920"
       x1="172.73884"
       y1="34.238924"
       x2="512.00123"
       y2="34.238924"
       gradientUnits="userSpaceOnUse" />
  </defs>
  <sodipodi:namedview
     pagecolor="#ffffff"
     bordercolor="#666666"
     borderopacity="1"
     objecttolerance="10"
     gridtolerance="10"
     guidetolerance="10"
     inkscape:pageopacity="0"
     inkscape:pageshadow="2"
     inkscape:window-width="1280"
     inkscape:window-height="987"
     id="namedview80"
     showgrid="false"
     inkscape:zoom="0.74646722"
     inkscape:cx="420.41425"
     inkscape:cy="72.919415"
     inkscape:window-x="1366"
     inkscape:window-y="0"
     inkscape:window-maximized="1"
     inkscape:current-layer="svg78" />
  <g
     id="g927"
     inkscape:export-xdpi="96"
     inkscape:export-ydpi="96">
    <path
       d="m 66.586164,53.346249 c 10.789274,0 20.515927,-6.499989 24.643611,-16.468472 C 95.357459,26.909293 93.073114,15.435875 85.44212,7.8085306 77.811127,0.18118654 66.336617,-2.0976696 56.370109,2.0347822 46.403601,6.167234 39.908271,15.896995 39.913427,26.686268 c 0,7.072876 2.810565,13.85588 7.81304,18.855962 5.002474,5.000083 11.786822,7.8074 18.859697,7.804019 z"
       fill="#ffcd00"
       id="path66"
       style="fill:#ffea00;fill-opacity:1" />
    <path
       d="M 66.751992,66.676234 H 66.6627 C 48.367068,66.671614 32.40307,54.262756 27.884551,36.533877 26.545174,31.201881 22.208144,26.686268 16.710321,26.686268 H 0 c 0,36.816792 29.845907,66.6627 66.6627,66.6627 h 0.08929 z"
       fill="#00ecbb"
       id="path68"
       style="fill:#ff7b00;fill-opacity:1" />
    <path
       d="m 66.586164,66.676234 h 0.07654 c 18.297186,-8.9e-5 34.263636,-12.410854 38.778146,-30.142357 1.35213,-5.331996 5.68916,-9.847609 11.18699,-9.847609 h 16.71032 c -0.007,36.818856 -29.8566,66.6627 -66.675456,66.6627 h -0.07654 z"
       fill="#af64ff"
       id="path70"
       style="fill:#ffdd00;fill-opacity:1" />
    <path
       d="m 113.80877,73.819577 c -12.50185,12.50293 -29.458645,19.527094 -47.139692,19.527094 -17.681047,0 -34.63784,-7.024164 -47.139688,-19.527094 L 38.382714,54.966254 c 15.624989,15.615217 40.947739,15.615217 56.572728,0 z"
       fill="#7131ff"
       id="path72"
       style="fill:#ffa200;fill-opacity:1" />
    <path
       d="m 465.41433,25.346891 h 7.33468 v 31.226615 h -7.33468 z m 3.69923,-5.102388 c -1.23801,0.02843 -2.43784,-0.429519 -3.34207,-1.275597 -0.88423,-0.805934 -1.37717,-1.954578 -1.35213,-3.150725 -0.0156,-1.164819 0.47825,-2.278369 1.35213,-3.048677 0.89972,-0.853269 2.10263,-1.312397 3.34207,-1.275597 1.23683,-0.0217 2.43422,0.435323 3.34206,1.275597 0.87546,0.741908 1.37176,1.837526 1.35213,2.984897 0.0197,1.232283 -0.46943,2.418192 -1.35213,3.278285 -0.90924,0.827441 -2.11511,1.250878 -3.34206,1.173549 z m -14.50354,36.737194 c -1.29295,0.02873 -2.54077,-0.475789 -3.45041,-1.395083 -0.90964,-0.919294 -1.40097,-2.172365 -1.35859,-3.464942 -0.0469,-1.304829 0.44156,-2.572133 1.35213,-3.507892 0.92853,-0.888081 2.17238,-1.370017 3.45687,-1.339376 1.29176,-0.0323 2.53971,0.469301 3.44977,1.386611 0.91007,0.91731 1.40177,2.169196 1.35923,3.460657 0.0461,1.293636 -0.44397,2.548905 -1.35445,3.469042 -0.91047,0.920137 -2.1605,1.423463 -3.45455,1.390983 z m 32.10678,-2.040955 c 5.40539,2.716211 11.7769,2.716211 17.18229,0 2.46816,-1.301523 4.52282,-3.267811 5.93153,-5.676407 1.45921,-2.521535 2.20856,-5.391088 2.16851,-8.304137 0.0472,-2.893754 -0.70306,-5.744664 -2.16851,-8.240356 -1.41582,-2.416454 -3.48512,-4.384065 -5.9698,-5.676407 -5.40539,-2.716212 -11.7769,-2.716212 -17.18229,0 -2.4802,1.30324 -4.55095,3.268016 -5.98255,5.676407 -1.43737,2.505026 -2.16913,5.352708 -2.11749,8.240356 -0.0449,2.907063 0.68602,5.773541 2.11749,8.304137 1.44775,2.408998 3.53081,4.372897 6.02082,5.676407 z m 15.24338,-6.90098 c -3.74103,3.570061 -9.62722,3.570061 -13.36826,0 -1.75775,-1.926852 -2.67578,-4.474389 -2.55119,-7.079564 -0.12459,-2.605174 0.79344,-5.152711 2.55119,-7.079563 3.73315,-3.589694 9.63511,-3.589694 13.36826,0 1.80269,1.904826 2.75551,4.459482 2.64049,7.079563 0.11502,2.620082 -0.8378,5.174738 -2.64049,7.079564 z m -207.29727,6.824444 c -0.9294,0.736889 -2.0026,1.271318 -3.15072,1.568984 -1.24502,0.351682 -2.53307,0.527714 -3.82679,0.522995 -2.89041,0.186543 -5.7375,-0.776239 -7.92146,-2.678754 -1.98719,-2.083483 -3.00177,-4.909477 -2.79356,-7.781142 V 18.701031 h 7.2709 v 7.079563 h 8.32965 v 5.816722 h -8.32965 v 14.758658 c -0.0815,1.259088 0.3148,2.502604 1.10977,3.48238 0.85609,0.82066 2.01864,1.24214 3.20175,1.160793 1.46592,0.04999 2.9053,-0.399814 4.08191,-1.275597 z m -105.09644,2.091979 c -3.0142,0.04799 -5.99365,-0.648674 -8.67406,-2.028199 -2.48379,-1.285384 -4.55997,-3.237877 -5.9953,-5.638139 -1.45657,-2.503467 -2.20196,-5.357116 -2.15576,-8.253113 -0.0516,-2.876487 0.69461,-5.711047 2.15576,-8.189333 1.42114,-2.389025 3.47354,-4.339907 5.93152,-5.638138 2.70116,-1.385278 5.70265,-2.081974 8.73784,-2.0282 2.79241,-0.06164 5.55562,0.578719 8.03626,1.862372 2.26988,1.184403 4.09891,3.067095 5.21719,5.370263 l -5.54884,3.316553 c -0.80267,-1.380513 -1.97292,-2.51102 -3.38033,-3.265529 -1.34052,-0.734092 -2.84702,-1.111815 -4.3753,-1.097013 -2.52067,-0.07967 -4.96237,0.885005 -6.74791,2.665998 -1.83476,1.866284 -2.80595,4.414504 -2.67875,7.028539 -0.14105,2.611444 0.77897,5.1691 2.55119,7.09232 3.05022,2.825147 7.53151,3.465332 11.25077,1.607252 1.39041,-0.77193 2.55551,-1.893067 3.38033,-3.252773 l 5.54884,3.252773 c -1.1789,2.29212 -3.02453,4.173327 -5.29372,5.395775 -2.4559,1.259953 -5.18745,1.88694 -7.94697,1.824104 z m 59.95306,-0.98221 c 2.41205,0.652228 4.89979,0.98221 7.39847,0.98221 4.34978,0 7.79389,-0.867406 10.30682,-2.551194 2.40692,-1.491555 3.85844,-4.133326 3.82679,-6.96476 0.11493,-1.864945 -0.51341,-3.699504 -1.74757,-5.102388 -1.11484,-1.185664 -2.51622,-2.064272 -4.06915,-2.551194 -2.00732,-0.573127 -4.05368,-0.999452 -6.12287,-1.275597 -1.87377,-0.337016 -3.71369,-0.840753 -5.49782,-1.505204 -1.09027,-0.36023 -1.80554,-1.404425 -1.74757,-2.551194 -0.003,-1.093374 0.62912,-2.088998 1.62001,-2.551194 1.52266,-0.738658 3.20856,-1.076718 4.89829,-0.98221 3.13169,-0.04884 6.21787,0.753572 8.92918,2.321587 l 2.80631,-5.523336 c -1.63797,-0.905371 -3.40661,-1.550862 -5.2427,-1.913395 -2.09046,-0.492566 -4.23029,-0.745066 -6.37799,-0.752602 -3.53434,-0.179092 -7.03603,0.753205 -10.01343,2.665997 -2.34628,1.558763 -3.72852,4.212481 -3.66097,7.02854 -0.1162,1.921013 0.50418,3.814089 1.73482,5.293728 1.17035,1.179366 2.61098,2.055126 4.19671,2.551194 2.06278,0.591157 4.16405,1.038688 6.28869,1.339376 1.80365,0.232536 3.5807,0.63835 5.30649,1.211818 1.01313,0.284669 1.70558,1.218419 1.68379,2.270562 0,2.287571 -2.17277,3.427104 -6.51831,3.4186 -1.97008,-0.0098 -3.93023,-0.279975 -5.82947,-0.803626 -1.76963,-0.506127 -3.45465,-1.271264 -5.00034,-2.270563 l -2.79356,5.523336 c 1.72857,1.22177 3.65241,2.140552 5.68916,2.717021 z m 55.52674,-1.045989 c 5.36784,2.704112 11.69965,2.704112 17.06749,0 2.4459,-1.29657 4.4822,-3.248942 5.8805,-5.638139 1.45059,-2.50593 2.19553,-5.357892 2.15576,-8.253113 0.0449,-2.875688 -0.70077,-5.708487 -2.15576,-8.189333 -1.3983,-2.389196 -3.4346,-4.341569 -5.8805,-5.638138 -5.36784,-2.704112 -11.69965,-2.704112 -17.06749,0 -2.45691,1.304357 -4.51196,3.253559 -5.94428,5.638138 -1.41722,2.493545 -2.13964,5.321584 -2.09198,8.189333 -0.043,2.887422 0.67874,5.734817 2.09198,8.253113 1.4461,2.402569 3.5244,4.361731 6.00806,5.663651 z m 15.14134,-6.862712 c -3.70569,3.57199 -9.57329,3.57199 -13.27897,0 -1.75479,-1.908202 -2.67342,-4.439025 -2.55119,-7.02854 -0.11937,-2.589081 0.79887,-5.118838 2.55119,-7.028539 3.71362,-3.552277 9.56535,-3.552277 13.27897,0 1.78801,1.891736 2.73168,4.428149 2.61497,7.028539 0.14382,2.600382 -0.77729,5.14724 -2.55119,7.054052 z m 56.12626,-22.884211 c 3.4465,-0.178385 6.81585,1.061499 9.32462,3.431356 2.28332,2.245051 3.43136,5.625383 3.43136,10.204776 v 17.756311 h -7.28366 V 39.722869 c 0.20299,-2.166128 -0.38617,-4.332403 -1.65828,-6.097353 -1.32175,-1.44372 -3.22526,-2.212626 -5.17892,-2.09198 -2.22607,-0.09432 -4.37951,0.802558 -5.88051,2.449147 -1.60791,1.906656 -2.41685,4.360895 -2.2578,6.849956 v 15.740867 h -7.28366 V 39.722869 c 0.16279,-2.18364 -0.47673,-4.351653 -1.79859,-6.097353 -1.32283,-1.442174 -3.22557,-2.210768 -5.17893,-2.09198 -2.23255,-0.09841 -4.39905,0.770981 -5.94428,2.385367 -1.57413,1.947001 -2.35744,4.415334 -2.19403,6.913736 v 15.740867 h -7.28365 V 39.212631 c 0,-8.699572 6.59483,-14.031568 15.20511,-14.031568 2.75385,-0.0365 5.49224,0.417016 8.08729,1.339377 1.79064,0.810936 3.29376,2.14507 4.31151,3.826791 1.30956,-1.663621 3.00965,-2.978126 4.94932,-3.826791 2.12186,-0.925534 4.42101,-1.374042 6.73515,-1.313865 z m 51.55964,18.20277 c 0.0765,-0.926934 0.1148,-1.641268 0.1148,-2.143003 0.0641,-2.918328 -0.63502,-5.802805 -2.0282,-8.367917 -1.27597,-2.385918 -3.2227,-4.345952 -5.59987,-5.638139 -2.46907,-1.3791 -5.25963,-2.078941 -8.08728,-2.028199 -2.88789,-0.04571 -5.73891,0.652774 -8.27863,2.028199 -2.41065,1.328566 -4.40295,3.303195 -5.75294,5.701919 -1.38442,2.481364 -2.0885,5.284514 -2.04096,8.125553 -0.0491,2.888137 0.67302,5.737107 2.09198,8.253113 1.45662,2.410413 3.56028,4.363813 6.07184,5.638139 5.09862,2.413237 10.95128,2.684279 16.25111,0.752602 2.05726,-0.812046 3.87755,-2.127917 5.29373,-3.826791 l -3.90333,-4.477346 c -2.22199,2.251079 -5.28317,3.471851 -8.44445,3.367576 -2.40369,0.0861 -4.77078,-0.607472 -6.74791,-1.977175 -1.76224,-1.31136 -2.95759,-3.245817 -3.34206,-5.408531 z M 406.32867,33.102521 c 1.65777,-1.402823 3.77334,-2.147358 5.94429,-2.091979 2.16907,-0.06806 4.28506,0.678225 5.93152,2.091979 1.5982,1.401233 2.61691,3.347712 2.85734,5.459555 h -17.64151 c 0.25733,-2.118034 1.29415,-4.064348 2.90836,-5.459555 z m 46.64859,-7.895946 v 6.913736 c -0.55481,-0.109645 -1.11833,-0.169411 -1.68379,-0.178584 -2.47672,-0.129823 -4.89221,0.797426 -6.64586,2.551195 -1.70347,1.954649 -2.56141,4.505535 -2.38537,7.092319 v 14.988265 h -7.28366 v -15.63882 c 0,-11.340057 7.28366,-17.144023 17.99868,-15.728111 z M 223.36979,56.981697 c -4.15844,0 -8.58477,-1.148037 -10.98289,-3.431356 -2.39812,-2.283319 -3.55891,-5.752943 -3.55891,-10.281312 V 25.525475 h 7.28366 v 16.761344 c -0.17116,2.24972 0.49177,4.483729 1.86237,6.275938 3.09483,2.701482 7.70947,2.701482 10.8043,0 1.36522,-1.79494 2.02754,-4.026862 1.86238,-6.275938 V 25.525475 h 7.28365 v 17.743554 c 0,4.532621 -1.1863,7.959725 -3.55891,10.281312 -2.42364,2.283319 -6.87547,3.431356 -11.02116,3.431356 z"
       fill="#2f326a"
       id="path74"
       style="fill-opacity:1;fill:url(#linearGradient920)" />
  </g>
</svg>
